# xmcd
#
# Track frame offsets: 
#        150
#        17250
#        30862
#        40987
#        54375
#        84000
#        95325
#        109875
#        130875
#        143025
#
# Disc length: 2146 seconds
#
# Revision: 4
# Processed by: cddbd v1.5.2PL0 Copyright (c) Steve Scherf et al.
# Submitted via: ExactAudioCopy v1.0b3
#
DISCID=6b08600a
DTITLE=Clarence 'Gatemouth' Brown - Alright Again!
DYEAR=1981
DGENRE=Blues
TTITLE0=Frosty
TTITLE1=Strollin' With Bones
TTITLE2=Give Me Time To Explain
TTITLE3=Baby Take It Easy
TTITLE4=Sometimes I Slip
TTITLE5=I Feel Alright Again
TTITLE6=Alligator Boogaloo
TTITLE7=Dollar Got the Blues
TTITLE8=Honey In The Be-Bo
TTITLE9=Gate Walks To Board
EXTD=Rounder CD 2028\n\nClarence "Gatemouth" Brown:  vocals, guitar, a
EXTD=nd violin\nLarry Sieberth:  piano\nDavid "Fingers" Fender:  Hammo
EXTD=nd organ and piano\nRed Lane:  bass\nMyron Dove:  bass\nLloyd Her
EXTD=rman:  drums\nBill "Foots" Samuel:  alto and tenor saxophones\nAl
EXTD=vin "Red" Tyler:  tenor saxophone\nJoe "Champagnski" Sunseri:  ba
EXTD=ritone saxophone\nStanton Davis, Jr.:  trumpet\nJim McMillen:  tr
EXTD=ombone\n\nProduced by Jim Bateman and Scott Billington\n\nSubmitt
EXTD=ed by James McCoy (jmccoy@efn.org) (3/97]\n
EXTT0=
EXTT1=
EXTT2=
EXTT3=
EXTT4=
EXTT5=
EXTT6=
EXTT7=
EXTT8=
EXTT9=
PLAYORDER=
